<svg xmlns="http://www.w3.org/2000/svg" xmlns:xlink="http://www.w3.org/1999/xlink" width="761.052" height="471.695" viewBox="0 0 761.052 471.695">
  <defs>
    <filter id="Rectangle_4" x="84.563" y="67.096" width="285.199" height="179.804" filterUnits="userSpaceOnUse">
      <feOffset dy="0.999" input="SourceAlpha"/>
      <feGaussianBlur stdDeviation="1.997" result="blur"/>
      <feFlood flood-opacity="0.161"/>
      <feComposite operator="in" in2="blur"/>
      <feComposite in="SourceGraphic"/>
    </filter>
    <filter id="Rectangle_15" x="378.82" y="263.801" width="318.439" height="179.805" filterUnits="userSpaceOnUse">
      <feOffset dy="0.999" input="SourceAlpha"/>
      <feGaussianBlur stdDeviation="1.997" result="blur-2"/>
      <feFlood flood-opacity="0.161"/>
      <feComposite operator="in" in2="blur-2"/>
      <feComposite in="SourceGraphic"/>
    </filter>
    <filter id="Rectangle_5" x="379.061" y="67.472" width="154.672" height="87.382" filterUnits="userSpaceOnUse">
      <feOffset dy="0.999" input="SourceAlpha"/>
      <feGaussianBlur stdDeviation="1.997" result="blur-3"/>
      <feFlood flood-opacity="0.161"/>
      <feComposite operator="in" in2="blur-3"/>
      <feComposite in="SourceGraphic"/>
    </filter>
    <filter id="Rectangle_5-2" x="378.946" y="159.14" width="154.672" height="87.382" filterUnits="userSpaceOnUse">
      <feOffset dy="0.999" input="SourceAlpha"/>
      <feGaussianBlur stdDeviation="1.997" result="blur-4"/>
      <feFlood flood-opacity="0.161"/>
      <feComposite operator="in" in2="blur-4"/>
      <feComposite in="SourceGraphic"/>
    </filter>
    <filter id="Rectangle_5-3" x="378.946" y="159.14" width="154.672" height="87.382" filterUnits="userSpaceOnUse">
      <feOffset dy="0.999" input="SourceAlpha"/>
      <feGaussianBlur stdDeviation="1.997" result="blur-5"/>
      <feFlood flood-opacity="0.161"/>
      <feComposite operator="in" in2="blur-5"/>
      <feComposite in="SourceGraphic"/>
    </filter>
    <filter id="Rectangle_5-4" x="538.132" y="31.574" width="222.92" height="123.445" filterUnits="userSpaceOnUse">
      <feOffset dy="0.999" input="SourceAlpha"/>
      <feGaussianBlur stdDeviation="1.997" result="blur-6"/>
      <feFlood flood-opacity="0.161"/>
      <feComposite operator="in" in2="blur-6"/>
      <feComposite in="SourceGraphic"/>
    </filter>
    <filter id="Rectangle_5-5" x="537.967" y="159.347" width="154.672" height="87.382" filterUnits="userSpaceOnUse">
      <feOffset dy="0.999" input="SourceAlpha"/>
      <feGaussianBlur stdDeviation="1.997" result="blur-7"/>
      <feFlood flood-opacity="0.161"/>
      <feComposite operator="in" in2="blur-7"/>
      <feComposite in="SourceGraphic"/>
    </filter>
    <filter id="Rectangle_14" x="84.322" y="263.428" width="285.199" height="179.804" filterUnits="userSpaceOnUse">
      <feOffset dy="0.999" input="SourceAlpha"/>
      <feGaussianBlur stdDeviation="1.997" result="blur-8"/>
      <feFlood flood-opacity="0.161"/>
      <feComposite operator="in" in2="blur-8"/>
      <feComposite in="SourceGraphic"/>
    </filter>
  </defs>
  <g id="Group_8" data-name="Group 8" transform="translate(-1661.902 -145.988)">
    <path id="Rectangle_1" data-name="Rectangle 1" d="M705.672,0a8,8,0,0,1,8,8V463.722a8,8,0,0,1-8,8H8a8,8,0,0,1-8-8V8Z" transform="translate(1662 146)" fill="#f4f4f4"/>
    <path id="Rectangle_3" data-name="Rectangle 3" d="M8,0H705.672a8,8,0,0,1,8,8V52.774H0V8A8,8,0,0,1,8,0Z" transform="translate(1662 146)" fill="#dae3ea"/>
    <g transform="matrix(1, 0, 0, 1, 1662, 146)" filter="url(#Rectangle_4)">
      <rect id="Rectangle_4-2" data-name="Rectangle 4" width="273.232" height="167.831" rx="3.994" transform="translate(90.55 72.09)" fill="#fff"/>
    </g>
    <g transform="matrix(1, 0, 0, 1, 1662, 146)" filter="url(#Rectangle_15)">
      <rect id="Rectangle_15-2" data-name="Rectangle 15" width="306.473" height="167.831" rx="3.994" transform="translate(384.81 268.79)" fill="#fff"/>
    </g>
    <rect id="Rectangle_8" data-name="Rectangle 8" width="448.988" height="18.674" rx="4" transform="translate(1774.856 163.05)" fill="#fff"/>
    <rect id="Rectangle_9" data-name="Rectangle 9" width="34.912" height="18.674" rx="4" transform="translate(1714.774 163.05)" fill="#fff"/>
    <rect id="Rectangle_10" data-name="Rectangle 10" width="34.912" height="18.674" rx="4" transform="translate(2242.518 163.05)" fill="#fff"/>
    <circle id="Ellipse_1" data-name="Ellipse 1" cx="9.337" cy="9.337" r="9.337" transform="translate(2291.233 163.05)" fill="#fff"/>
    <rect id="Rectangle_16" data-name="Rectangle 16" width="23.546" height="102.301" transform="translate(1785.411 255.608)" fill="#5250fb"/>
    <rect id="Rectangle_19" data-name="Rectangle 19" width="23.546" height="102.301" transform="translate(1904.762 255.608)" fill="#5250fb"/>
    <rect id="Rectangle_20" data-name="Rectangle 20" width="23.546" height="75.508" transform="translate(1944.546 282.402)" fill="#50cdfb"/>
    <rect id="Rectangle_17" data-name="Rectangle 17" width="23.546" height="74.696" transform="translate(1825.195 283.213)" fill="#50cdfb"/>
    <rect id="Rectangle_18" data-name="Rectangle 18" width="23.546" height="56.022" transform="translate(1864.979 301.887)" fill="#f55d5d"/>
    <g id="Group_1" data-name="Group 1" transform="translate(2047.659 218.26)">
      <g transform="matrix(1, 0, 0, 1, -385.66, -72.26)" filter="url(#Rectangle_5)">
        <rect id="Rectangle_5-6" data-name="Rectangle 5" width="142.697" height="75.402" rx="3.994" transform="translate(385.05 72.47)" fill="#fff"/>
      </g>
      <circle id="Ellipse_2" data-name="Ellipse 2" cx="13.397" cy="13.397" r="13.397" transform="translate(11.367 10.555)" fill="#5250fb"/>
      <rect id="Rectangle_21" data-name="Rectangle 21" width="109.608" height="13.803" transform="translate(17.05 48.715)" fill="#dae3ea"/>
      <rect id="Rectangle_22" data-name="Rectangle 22" width="77.132" height="8.119" transform="translate(47.903 16.238)" fill="#dae3ea"/>
      <rect id="Rectangle_23" data-name="Rectangle 23" width="51.151" height="8.119" transform="translate(47.903 30.041)" fill="#dae3ea"/>
    </g>
    <g id="Group_4" data-name="Group 4" transform="translate(2047.659 310.007)">
      <g transform="matrix(1, 0, 0, 1, -385.66, -164.01)" filter="url(#Rectangle_5-2)">
        <rect id="Rectangle_5-7" data-name="Rectangle 5" width="142.697" height="75.402" rx="3.994" transform="translate(384.94 164.13)" fill="#fff"/>
      </g>
      <circle id="Ellipse_2-2" data-name="Ellipse 2" cx="13.397" cy="13.397" r="13.397" transform="translate(11.367 10.555)" fill="#f55d5d"/>
      <rect id="Rectangle_21-2" data-name="Rectangle 21" width="109.608" height="13.803" transform="translate(17.05 48.715)" fill="#dae3ea"/>
      <rect id="Rectangle_22-2" data-name="Rectangle 22" width="77.132" height="8.119" transform="translate(47.903 16.238)" fill="#dae3ea"/>
      <rect id="Rectangle_23-2" data-name="Rectangle 23" width="51.151" height="8.119" transform="translate(47.903 30.041)" fill="#dae3ea"/>
    </g>
    <g id="Group_5" data-name="Group 5" transform="translate(2047.659 310.007)">
      <g transform="matrix(1, 0, 0, 1, -385.66, -164.01)" filter="url(#Rectangle_5-3)">
        <rect id="Rectangle_5-8" data-name="Rectangle 5" width="142.697" height="75.402" rx="3.994" transform="translate(384.94 164.13)" fill="#fff"/>
      </g>
      <circle id="Ellipse_2-3" data-name="Ellipse 2" cx="13.397" cy="13.397" r="13.397" transform="translate(11.367 10.555)" fill="#f55d5d"/>
      <rect id="Rectangle_21-3" data-name="Rectangle 21" width="109.608" height="13.803" transform="translate(17.05 48.715)" fill="#dae3ea"/>
      <rect id="Rectangle_22-3" data-name="Rectangle 22" width="77.132" height="8.119" transform="translate(47.903 16.238)" fill="#dae3ea"/>
      <rect id="Rectangle_23-3" data-name="Rectangle 23" width="51.151" height="8.119" transform="translate(47.903 30.041)" fill="#dae3ea"/>
    </g>
    <g id="Group_2" data-name="Group 2" transform="translate(2206.794 182.144)">
      <g transform="matrix(1, 0, 0, 1, -544.79, -36.14)" filter="url(#Rectangle_5-4)">
        <rect id="Rectangle_5-9" data-name="Rectangle 5" width="210.949" height="111.468" rx="3.994" transform="translate(544.12 36.57)" fill="#fff"/>
      </g>
      <circle id="Ellipse_2-4" data-name="Ellipse 2" cx="19.804" cy="19.804" r="19.804" transform="translate(16.804 15.603)" fill="#50cdfb"/>
      <rect id="Rectangle_21-4" data-name="Rectangle 21" width="162.035" height="20.404" transform="translate(25.205 72.015)" fill="#dae3ea"/>
      <rect id="Rectangle_22-4" data-name="Rectangle 22" width="114.024" height="12.003" transform="translate(70.815 24.005)" fill="#dae3ea"/>
      <rect id="Rectangle_23-4" data-name="Rectangle 23" width="75.616" height="12.003" transform="translate(70.815 44.41)" fill="#dae3ea"/>
    </g>
    <g id="Group_3" data-name="Group 3" transform="translate(2206.794 310.007)">
      <g transform="matrix(1, 0, 0, 1, -544.79, -164.01)" filter="url(#Rectangle_5-5)">
        <rect id="Rectangle_5-10" data-name="Rectangle 5" width="142.697" height="75.402" rx="3.994" transform="translate(543.96 164.34)" fill="#fff"/>
      </g>
      <circle id="Ellipse_2-5" data-name="Ellipse 2" cx="13.397" cy="13.397" r="13.397" transform="translate(11.367 10.555)" fill="#5250fb"/>
      <rect id="Rectangle_21-5" data-name="Rectangle 21" width="109.608" height="13.803" transform="translate(17.05 48.715)" fill="#dae3ea"/>
      <rect id="Rectangle_22-5" data-name="Rectangle 22" width="77.132" height="8.119" transform="translate(47.903 16.238)" fill="#dae3ea"/>
      <rect id="Rectangle_23-5" data-name="Rectangle 23" width="51.151" height="8.119" transform="translate(47.903 30.041)" fill="#dae3ea"/>
      <rect id="Rectangle_27" data-name="Rectangle 27" width="51.151" height="8.119" transform="translate(47.903 30.041)" fill="#dae3ea"/>
    </g>
    <g id="Group_12" data-name="Group 12" transform="translate(1752.934 414.744)">
      <g transform="matrix(1, 0, 0, 1, -90.93, -268.74)" filter="url(#Rectangle_14)">
        <rect id="Rectangle_14-2" data-name="Rectangle 14" width="273.232" height="167.831" rx="3.994" transform="translate(90.31 268.42)" fill="#fff"/>
      </g>
      <path id="Path_1" data-name="Path 1" d="M1800.28,607.856l68-60.985,43.129,24.914,101.52-53.015" transform="translate(-1778.944 -484.856)" fill="none" stroke="#5250fb" stroke-width="4"/>
      <path id="Path_2" data-name="Path 2" d="M1800.28,580.884l70.385-16.8,33.059-23.211,52.841-10.6,22.235-15.216,33.012,65.827" transform="translate(-1778.944 -484.158)" fill="none" stroke="#f55d5d" stroke-width="4"/>
      <path id="Path_3" data-name="Path 3" d="M1800.28,564.12l89.493,39.43,43.4-5.947h35.194l42.419,11.123" transform="translate(-1778.944 -493.386)" fill="none" stroke="#50cdfb" stroke-width="4"/>
    </g>
    <g id="Group_6" data-name="Group 6" transform="translate(2076.6 428.258)">
      <g id="Ellipse_3" data-name="Ellipse 3" transform="translate(10.843 10.843)" fill="none" stroke="#5250fb" stroke-width="18">
        <circle cx="54.398" cy="54.398" r="54.398" stroke="none"/>
        <circle cx="54.398" cy="54.398" r="45.398" fill="none"/>
      </g>
      <g id="Path_4" data-name="Path 4" transform="translate(10.843 10.843)">
        <path id="Path_5" data-name="Path 5" d="M54.4,0A54.4,54.4,0,1,1,0,54.4,54.4,54.4,0,0,1,54.4,0Z" fill="none"/>
        <path id="Path_6" data-name="Path 6" d="M54.4,0a54.4,54.4,0,0,1,54.4,54.4v.174h0v.149a.164.164,0,0,0,0,.022v.117a.032.032,0,0,0,0,.01v.085a.134.134,0,0,1,0,.02v.067a.143.143,0,0,1,0,.021v.066c0,.007,0,.014,0,.021v.036a.216.216,0,0,1,0,.025v.062a.222.222,0,0,0,0,.026v.036a.1.1,0,0,0,0,.017v.039a.158.158,0,0,0,0,.022v.035a.224.224,0,0,0,0,.026V55.5a.028.028,0,0,0,0,.009v.027a.136.136,0,0,1,0,.02v.04a.114.114,0,0,0,0,.018v.008a.161.161,0,0,1,0,.022v.038a.117.117,0,0,0,0,.019v.008a.164.164,0,0,1,0,.022v.038a.122.122,0,0,0,0,.019V55.8c0,.007,0,.014,0,.021v0a.223.223,0,0,1,0,.026v.035a.129.129,0,0,0,0,.02v.007c0,.008,0,.017,0,.026v.006a.128.128,0,0,1,0,.02v.029s0,0,0,.006v.025a.025.025,0,0,1,0,.009v.027a.135.135,0,0,0,0,.02v.006c0,.008,0,.017,0,.026v.006c0,.007,0,.014,0,.02v.009a.133.133,0,0,1,0,.02v.006a.219.219,0,0,1,0,.026V56.2a.113.113,0,0,1,0,.018v.026a.043.043,0,0,0,0,.011.185.185,0,0,1,0,.023v.026a.04.04,0,0,0,0,.011v.017a.03.03,0,0,0,0,.01.2.2,0,0,1,0,.024v.008a.114.114,0,0,1,0,.018v.01a.093.093,0,0,1,0,.017v.01c0,.008,0,.016,0,.024v.007c0,.006,0,.012,0,.019v.01c0,.005,0,.012,0,.017v.009c0,.008,0,.016,0,.023v.007a.138.138,0,0,0,0,.02.032.032,0,0,1,0,.01V56.6s0,.009,0,.011v.02a.031.031,0,0,0,0,.009.146.146,0,0,1,0,.021v.01a.1.1,0,0,1,0,.017v.01c0,.006,0,.011,0,.017v.015a.1.1,0,0,0,0,.017.04.04,0,0,1,0,.011v.015s0,.008,0,.011a.094.094,0,0,1,0,.017v.011c0,.007,0,.014,0,.022v.011a.084.084,0,0,0,0,.016.036.036,0,0,1,0,.01v.017a.026.026,0,0,0,0,.009.194.194,0,0,1,0,.024v.01a.086.086,0,0,0,0,.016.044.044,0,0,1,0,.011v.016s0,.006,0,.009a.193.193,0,0,1,0,.024v.01a.087.087,0,0,0,0,.016.04.04,0,0,1,0,.011v.015a.037.037,0,0,0,0,.011c0,.008,0,.016,0,.024v.01a.09.09,0,0,0,0,.016s0,.007,0,.011a.077.077,0,0,1,0,.015v.011c0,.008,0,.016,0,.023s0,.008,0,.012a.073.073,0,0,1,0,.015v.011s0,.01,0,.015v.011c0,.008,0,.016,0,.024v.011a.077.077,0,0,0,0,.015.049.049,0,0,1,0,.012v.015a.037.037,0,0,0,0,.01c0,.008,0,.016,0,.024s0,.007,0,.01a.085.085,0,0,1,0,.016v.011a.065.065,0,0,0,0,.014.051.051,0,0,1,0,.012.134.134,0,0,1,0,.02.062.062,0,0,1,0,.014v.015a.05.05,0,0,0,0,.012s0,.009,0,.013V57.5a.074.074,0,0,0,0,.015.133.133,0,0,0,0,.02.065.065,0,0,0,0,.014s0,.009,0,.012a.054.054,0,0,1,0,.013v.013a.053.053,0,0,0,0,.013c0,.007,0,.016,0,.023v.011a.078.078,0,0,0,0,.015.029.029,0,0,1,0,.009.077.077,0,0,1,0,.015v.01c0,.007,0,.017,0,.025v.013a.061.061,0,0,0,0,.013s0,.008,0,.011a.069.069,0,0,1,0,.014v.012c0,.007,0,.016,0,.023a.051.051,0,0,1,0,.012.07.07,0,0,1,0,.014v.01c0,.005,0,.009,0,.015a.033.033,0,0,1,0,.01c0,.009,0,.015,0,.024s0,.009,0,.013,0,.007,0,.013a.048.048,0,0,1,0,.012.07.07,0,0,1,0,.014v.01c0,.011,0,.019,0,.03a.017.017,0,0,1,0,.007.089.089,0,0,1,0,.016V58c0,.005,0,.011,0,.017a.017.017,0,0,1,0,.007c0,.011,0,.022,0,.033v.006a.088.088,0,0,0,0,.016s0,.005,0,.008,0,.012,0,.017v.007l0,.038h0c0,.006,0,.01,0,.016s0,.006,0,.009,0,.011,0,.015v.01c0,.007,0,.014,0,.021s0,.01,0,.015,0,.009,0,.015a.03.03,0,0,1,0,.009s0,.012,0,.016v.009c0,.018,0,.035,0,.053s0,.006,0,.009,0,.011,0,.015a.033.033,0,0,1,0,.01l0,.052a.031.031,0,0,0,0,.01c0,.005,0,.01,0,.015s0,.006,0,.009,0,.01,0,.015v0l0,.035v.008c0,.005,0,.01,0,.016v.009c0,.005,0,.011,0,.016v0c0,.013,0,.022,0,.035a.017.017,0,0,0,0,.007c0,.005,0,.011,0,.017s0,.006,0,.008c0,.018,0,.038,0,.056a.009.009,0,0,1,0,0,.1.1,0,0,1,0,.017.022.022,0,0,1,0,.008.1.1,0,0,1,0,.017v0l0,.038v0c0,.005,0,.012,0,.018V58.8c0,.005,0,.012,0,.017v0l0,.034v.006c0,.005,0,.01,0,.016v.009c0,.005,0,.011,0,.017v.005l0,.037v0c0,.005,0,.012,0,.018v.007c0,.005,0,.013,0,.018v0c0,.02,0,.039-.005.059a.016.016,0,0,1,0,.007c0,.005,0,.013,0,.018v0c0,.02,0,.039,0,.059a.011.011,0,0,0,0,.005.11.11,0,0,0,0,.018.007.007,0,0,0,0,0c0,.018,0,.04,0,.058v.005c0,.007,0,.011,0,.018v.005c0,.018,0,.039-.006.057v.006c0,.007,0,.011,0,.018v0c0,.018,0,.041,0,.059a.006.006,0,0,0,0,0c0,.007,0,.012,0,.019a0,0,0,0,0,0,0c0,.021,0,.039-.005.061v0c0,.007,0,.013,0,.02v0c0,.02,0,.039,0,.059,0,0,0,0,0,0s0,.011,0,.018a.012.012,0,0,0,0,.006l-.006.059v0a.133.133,0,0,1,0,.02v0c0,.029,0,.054-.008.083v0l-.009.083v0c0,.029,0,.055-.008.083v0a.136.136,0,0,0,0,.02h0l-.006.062v0l-.009.084v0l-.018.17h0c0,.007,0,.014,0,.021h0c-.007.057-.013.113-.019.17h0c0,.028-.006.056-.01.085h0l-.009.085h0a54.465,54.465,0,0,1-1.224,6.818h0c-.006.027-.013.054-.02.081h0l-.02.08v0c-.007.026-.013.052-.02.078,0,0,0,0,0,.005a.1.1,0,0,0,0,.017.006.006,0,0,0,0,0l-.015.056v0l-.005.018s0,0,0,0c0,.019-.009.037-.014.055,0,0,0,0,0,.006l0,.017a.008.008,0,0,1,0,0l-.013.052a.027.027,0,0,0,0,.009l0,.014,0,.01,0,.012a.076.076,0,0,1,0,.014.152.152,0,0,1-.005.02.038.038,0,0,0,0,.01l0,.013a.034.034,0,0,0,0,.01.072.072,0,0,0,0,.014l0,.011-.006.023a.036.036,0,0,0,0,.01l0,.014,0,.01c0,.005,0,.007,0,.012s0,.011,0,.016l0,.017a.064.064,0,0,0,0,.013l0,.012,0,.012c0,.005,0,.007,0,.012s0,.012-.005.018l0,.013a.083.083,0,0,0,0,.015l0,.011a.073.073,0,0,1,0,.014s0,.008,0,.01,0,.011,0,.016a.092.092,0,0,1,0,.016.082.082,0,0,1,0,.015s0,.007,0,.01a.079.079,0,0,0,0,.015l0,.009a.151.151,0,0,1,0,.02l0,.008c0,.007,0,.013,0,.019l0,.01a.083.083,0,0,1,0,.015s0,.007,0,.009,0,.013,0,.019l0,.009a.138.138,0,0,1,0,.019s0,.007,0,.009a.082.082,0,0,0,0,.015l0,.01c0,.007,0,.013,0,.02a.007.007,0,0,0,0,0c0,.008,0,.016-.007.024a.02.02,0,0,1,0,.007.119.119,0,0,1,0,.018s0,0,0,.007l-.006.021s0,0,0,0l-.006.023s0,.006,0,.008,0,.011,0,.016a.03.03,0,0,0,0,.009l-.006.019s0,0,0,.005l-.006.023s0,0,0,0L89.514,64.026A36.444,36.444,0,0,0,54.4,18V0Z" fill="#50cdfb"/>
      </g>
      <g id="Path_5-2" data-name="Path 5" transform="translate(130.482 24.474) rotate(103)">
        <path id="Path_7" data-name="Path 7" d="M54.4,0A54.4,54.4,0,1,1,0,54.4,54.4,54.4,0,0,1,54.4,0Z" fill="none"/>
        <path id="Path_8" data-name="Path 8" d="M54.4,0a54.4,54.4,0,0,1,54.4,54.4v.174h0v.149a.164.164,0,0,0,0,.022v.117a.032.032,0,0,0,0,.01v.085a.134.134,0,0,1,0,.02v.067a.143.143,0,0,1,0,.021v.066c0,.007,0,.014,0,.021v.036a.216.216,0,0,1,0,.025v.062a.222.222,0,0,0,0,.026v.036a.1.1,0,0,0,0,.017v.039a.158.158,0,0,0,0,.022v.035a.224.224,0,0,0,0,.026V55.5a.028.028,0,0,0,0,.009v.027a.136.136,0,0,1,0,.02v.04a.114.114,0,0,0,0,.018v.008a.161.161,0,0,1,0,.022v.038a.117.117,0,0,0,0,.019v.008a.164.164,0,0,1,0,.022v.038a.122.122,0,0,0,0,.019V55.8c0,.007,0,.014,0,.021v0a.223.223,0,0,1,0,.026v.035a.129.129,0,0,0,0,.02v.007c0,.008,0,.017,0,.026v.006a.128.128,0,0,1,0,.02v.029s0,0,0,.006v.025a.025.025,0,0,1,0,.009v.027a.135.135,0,0,0,0,.02v.006c0,.008,0,.017,0,.026v.006c0,.007,0,.014,0,.02v.009a.133.133,0,0,1,0,.02v.006a.219.219,0,0,1,0,.026V56.2a.113.113,0,0,1,0,.018v.026a.043.043,0,0,0,0,.011.185.185,0,0,1,0,.023v.026a.04.04,0,0,0,0,.011v.017a.03.03,0,0,0,0,.01.2.2,0,0,1,0,.024v.008a.114.114,0,0,1,0,.018v.01a.093.093,0,0,1,0,.017v.01c0,.008,0,.016,0,.024v.007c0,.006,0,.012,0,.019v.01c0,.005,0,.012,0,.017v.009c0,.008,0,.016,0,.023v.007a.138.138,0,0,0,0,.02.032.032,0,0,1,0,.01V56.6s0,.009,0,.011v.02a.031.031,0,0,0,0,.009.146.146,0,0,1,0,.021v.01a.1.1,0,0,1,0,.017v.01c0,.006,0,.011,0,.017v.015a.1.1,0,0,0,0,.017.04.04,0,0,1,0,.011v.015s0,.008,0,.011a.094.094,0,0,1,0,.017v.011c0,.007,0,.014,0,.022v.011a.084.084,0,0,0,0,.016.036.036,0,0,1,0,.01v.017a.026.026,0,0,0,0,.009.194.194,0,0,1,0,.024v.01a.086.086,0,0,0,0,.016.044.044,0,0,1,0,.011v.016s0,.006,0,.009a.193.193,0,0,1,0,.024v.01a.087.087,0,0,0,0,.016.04.04,0,0,1,0,.011v.015a.037.037,0,0,0,0,.011c0,.008,0,.016,0,.024v.01a.09.09,0,0,0,0,.016s0,.007,0,.011a.077.077,0,0,1,0,.015v.011c0,.008,0,.016,0,.023s0,.008,0,.012a.073.073,0,0,1,0,.015v.011s0,.01,0,.015v.011c0,.008,0,.016,0,.024v.011a.077.077,0,0,0,0,.015.049.049,0,0,1,0,.012v.015a.037.037,0,0,0,0,.01c0,.008,0,.016,0,.024s0,.007,0,.01a.085.085,0,0,1,0,.016v.011a.065.065,0,0,0,0,.014.051.051,0,0,1,0,.012.134.134,0,0,1,0,.02.062.062,0,0,1,0,.014v.015a.05.05,0,0,0,0,.012s0,.009,0,.013V57.5a.074.074,0,0,0,0,.015.133.133,0,0,0,0,.02.065.065,0,0,0,0,.014s0,.009,0,.012a.054.054,0,0,1,0,.013v.013a.053.053,0,0,0,0,.013c0,.007,0,.016,0,.023v.011a.078.078,0,0,0,0,.015.029.029,0,0,1,0,.009.077.077,0,0,1,0,.015v.01c0,.007,0,.017,0,.025v.013a.061.061,0,0,0,0,.013s0,.008,0,.011a.069.069,0,0,1,0,.014v.012c0,.007,0,.016,0,.023a.051.051,0,0,1,0,.012.07.07,0,0,1,0,.014v.01c0,.005,0,.009,0,.015a.033.033,0,0,1,0,.01c0,.009,0,.015,0,.024s0,.009,0,.013,0,.007,0,.013a.048.048,0,0,1,0,.012.07.07,0,0,1,0,.014v.01c0,.011,0,.019,0,.03a.017.017,0,0,1,0,.007.089.089,0,0,1,0,.016V58c0,.005,0,.011,0,.017a.017.017,0,0,1,0,.007c0,.011,0,.022,0,.033v.006a.088.088,0,0,0,0,.016s0,.005,0,.008,0,.012,0,.017v.007l0,.038h0c0,.006,0,.01,0,.016s0,.006,0,.009,0,.011,0,.015v.01c0,.007,0,.014,0,.021s0,.01,0,.015,0,.009,0,.015a.03.03,0,0,1,0,.009s0,.012,0,.016v.009c0,.018,0,.035,0,.053s0,.006,0,.009,0,.011,0,.015a.033.033,0,0,1,0,.01l0,.052a.031.031,0,0,0,0,.01c0,.005,0,.01,0,.015s0,.006,0,.009,0,.01,0,.015v0l0,.035v.008c0,.005,0,.01,0,.016v.009c0,.005,0,.011,0,.016v0c0,.013,0,.022,0,.035a.017.017,0,0,0,0,.007c0,.005,0,.011,0,.017s0,.006,0,.008c0,.018,0,.038,0,.056a.009.009,0,0,1,0,0,.1.1,0,0,1,0,.017.022.022,0,0,1,0,.008.1.1,0,0,1,0,.017v0l0,.038v0c0,.005,0,.012,0,.018V58.8c0,.005,0,.012,0,.017v0l0,.034v.006c0,.005,0,.01,0,.016v.009c0,.005,0,.011,0,.017v.005l0,.037v0c0,.005,0,.012,0,.018v.007c0,.005,0,.013,0,.018v0c0,.02,0,.039-.005.059a.016.016,0,0,1,0,.007c0,.005,0,.013,0,.018v0c0,.02,0,.039,0,.059a.011.011,0,0,0,0,.005.11.11,0,0,0,0,.018.007.007,0,0,0,0,0c0,.018,0,.04,0,.058v.005c0,.007,0,.011,0,.018v.005c0,.018,0,.039-.006.057v.006c0,.007,0,.011,0,.018v0c0,.018,0,.041,0,.059a.006.006,0,0,0,0,0c0,.007,0,.012,0,.019a0,0,0,0,0,0,0c0,.021,0,.039-.005.061v0c0,.007,0,.013,0,.02v0c0,.02,0,.039,0,.059,0,0,0,0,0,0s0,.011,0,.018a.012.012,0,0,0,0,.006l-.006.059v0a.133.133,0,0,1,0,.02v0c0,.029,0,.054-.008.083v0l-.009.083v0c0,.029,0,.055-.008.083v0a.136.136,0,0,0,0,.02h0l-.006.062v0l-.009.084v0l-.018.17h0c0,.007,0,.014,0,.021h0c-.007.057-.013.113-.019.17h0c0,.028-.006.056-.01.085h0l-.009.085h0a54.465,54.465,0,0,1-1.224,6.818h0c-.006.027-.013.054-.02.081h0l-.02.08v0c-.007.026-.013.052-.02.078,0,0,0,0,0,.005a.1.1,0,0,0,0,.017.006.006,0,0,0,0,0l-.015.056v0l-.005.018s0,0,0,0c0,.019-.009.037-.014.055,0,0,0,0,0,.006l0,.017a.008.008,0,0,1,0,0l-.013.052a.027.027,0,0,0,0,.009l0,.014,0,.01,0,.012a.076.076,0,0,1,0,.014.152.152,0,0,1-.005.02.038.038,0,0,0,0,.01l0,.013a.034.034,0,0,0,0,.01.072.072,0,0,0,0,.014l0,.011-.006.023a.036.036,0,0,0,0,.01l0,.014,0,.01c0,.005,0,.007,0,.012s0,.011,0,.016l0,.017a.064.064,0,0,0,0,.013l0,.012,0,.012c0,.005,0,.007,0,.012s0,.012-.005.018l0,.013a.083.083,0,0,0,0,.015l0,.011a.073.073,0,0,1,0,.014s0,.008,0,.01,0,.011,0,.016a.092.092,0,0,1,0,.016.082.082,0,0,1,0,.015s0,.007,0,.01a.079.079,0,0,0,0,.015l0,.009a.151.151,0,0,1,0,.02l0,.008c0,.007,0,.013,0,.019l0,.01a.083.083,0,0,1,0,.015s0,.007,0,.009,0,.013,0,.019l0,.009a.138.138,0,0,1,0,.019s0,.007,0,.009a.082.082,0,0,0,0,.015l0,.01c0,.007,0,.013,0,.02a.007.007,0,0,0,0,0c0,.008,0,.016-.007.024a.02.02,0,0,1,0,.007.119.119,0,0,1,0,.018s0,0,0,.007l-.006.021s0,0,0,0l-.006.023s0,.006,0,.008,0,.011,0,.016a.03.03,0,0,0,0,.009l-.006.019s0,0,0,.005l-.006.023s0,0,0,0L89.514,64.026A36.444,36.444,0,0,0,54.4,18V0Z" fill="#f55d5d"/>
      </g>
    </g>
    <rect id="Rectangle_24" data-name="Rectangle 24" width="11.367" height="11.367" rx="2" transform="translate(2245.766 445.596)" fill="#5250fb"/>
    <rect id="Rectangle_25" data-name="Rectangle 25" width="11.367" height="11.367" rx="2" transform="translate(2245.766 467.518)" fill="#50cdfb"/>
    <rect id="Rectangle_26" data-name="Rectangle 26" width="11.367" height="11.367" rx="2" transform="translate(2245.766 489.44)" fill="#f55d5d"/>
    <rect id="Rectangle_28" data-name="Rectangle 28" width="51.151" height="6.495" transform="translate(2271.747 447.22)" fill="#dae3ea"/>
    <rect id="Rectangle_29" data-name="Rectangle 29" width="40.596" height="6.495" transform="translate(2271.747 469.142)" fill="#dae3ea"/>
    <rect id="Rectangle_30" data-name="Rectangle 30" width="40.596" height="6.495" transform="translate(2271.747 491.063)" fill="#dae3ea"/>
  </g>
</svg>
